<svg height="128" width="128" xmlns="http://www.w3.org/2000/svg"><rect x="2" y="2" width="124" height="124" rx="14" fill="#363d52" stroke="#212532" stroke-width="4"/><g transform="scale(.101) translate(122 122)"><g fill="#fff"><path d="m105 673v33q407 354 814 0v-33z"/><path d="m105 673v33q407 354 814 0v-33z" fill="#fff"/><g fill="#3e69c3"><circle cx="226" cy="406" r="120"/><circle cx="794" cy="406" r="120"/></g><path d="m226 286q-40-40-95-40-57 0-95 40v240q0 57 95 57 55 0 95-40z" fill="#3e69c3"/><path d="m794 286q40-40 95-40 57 0 95 40v240q0 57-95 57-55 0-95-40z" fill="#3e69c3"/><path d="m226 406q0 40 27 40t27-40-27-40-27 40z" fill="#fff"/><path d="m794 406q0 40-27 40t-27-40 27-40 27 40z" fill="#fff"/></g></g></svg>